<svg xmlns="http://www.w3.org/2000/svg" width="20" height="20" viewBox="0 0 20 20" fill="none">
  <mask id="mask0_691_300" style="mask-type:alpha" maskUnits="userSpaceOnUse" x="0" y="0" width="20" height="20">
    <rect width="20" height="20" fill="#D9D9D9"/>
  </mask>
  <g mask="url(#mask0_691_300)">
    <path d="M15.8893 16.6474L10.9261 11.6843C10.5095 12.0005 10.0526 12.2454 9.55547 12.4191C9.05836 12.5927 8.5454 12.6795 8.01661 12.6795C6.71682 12.6795 5.61184 12.2245 4.70168 11.3146C3.79151 10.4047 3.33643 9.30026 3.33643 8.00133C3.33643 6.70238 3.79138 5.59751 4.7013 4.68672C5.61122 3.77595 6.71565 3.32056 8.01459 3.32056C9.31352 3.32056 10.4184 3.77564 11.3292 4.68581C12.24 5.59597 12.6954 6.70095 12.6954 8.00074C12.6954 8.54556 12.6059 9.06653 12.4269 9.56364C12.248 10.0608 12.0057 10.5096 11.7002 10.9103L16.6633 15.8734L15.8893 16.6474ZM8.01588 11.5962C9.02016 11.5962 9.87059 11.2479 10.5672 10.5513C11.2638 9.85472 11.6121 9.00429 11.6121 8.00002C11.6121 6.99574 11.2638 6.14531 10.5672 5.44872C9.87059 4.75214 9.02016 4.40385 8.01588 4.40385C7.01161 4.40385 6.16118 4.75214 5.46459 5.44872C4.76802 6.14531 4.41974 6.99574 4.41974 8.00002C4.41974 9.00429 4.76802 9.85472 5.46459 10.5513C6.16118 11.2479 7.01161 11.5962 8.01588 11.5962Z" fill="#3B3B3B" fill-opacity="0.7"/>
  </g>
</svg>